<svg xmlns="http://www.w3.org/2000/svg" xmlns:xlink="http://www.w3.org/1999/xlink" width="512" zoomAndPan="magnify" viewBox="0 0 384 383.999986" height="512" preserveAspectRatio="xMidYMid meet" version="1.0"><defs><clipPath id="c6d2bac052"><path d="M 83.65625 61.964844 L 320.039062 61.964844 L 320.039062 330.519531 L 83.65625 330.519531 Z M 83.65625 61.964844 " clip-rule="nonzero"/></clipPath><clipPath id="bf228b8493"><path d="M 38.398438 38.441406 L 159.085938 38.441406 L 159.085938 365.234375 L 38.398438 365.234375 Z M 38.398438 38.441406 " clip-rule="nonzero"/></clipPath><clipPath id="7d11305027"><path d="M 95 57 L 140 57 L 140 98.332031 L 95 98.332031 Z M 95 57 " clip-rule="nonzero"/></clipPath></defs><g clip-path="url(#c6d2bac052)"><path fill="#b80000" d="M 320.039062 134.625 C 320.039062 94.5 287.59375 61.964844 247.5625 61.964844 L 83.65625 61.964844 L 83.65625 107.875 L 247.5625 107.875 C 262.300781 107.875 274.246094 119.851562 274.246094 134.625 C 274.246094 149.40625 262.300781 161.382812 247.5625 161.382812 L 83.65625 161.382812 L 83.65625 207.285156 L 93.242188 207.285156 C 120.421875 207.285156 146.496094 218.121094 165.722656 237.390625 L 228.589844 300.417969 C 247.816406 319.695312 273.882812 330.519531 301.070312 330.519531 L 320.039062 330.519531 L 320.039062 284.617188 C 292.851562 284.617188 266.777344 273.785156 247.5625 254.515625 L 200.457031 207.292969 L 247.5625 207.292969 C 287.59375 207.292969 320.039062 174.757812 320.039062 134.632812 Z M 320.039062 134.625 " fill-opacity="1" fill-rule="nonzero"/></g><g clip-path="url(#bf228b8493)"><path fill="#ffffff" d="M 38.398438 38.441406 L 159.085938 38.441406 L 159.085938 365.148438 L 38.398438 365.148438 Z M 38.398438 38.441406 " fill-opacity="1" fill-rule="nonzero"/></g><path fill="#b80000" d="M 98.046875 298.367188 L 106.523438 298.367188 L 106.523438 316.054688 L 115.675781 316.054688 L 115.675781 302.824219 L 123.894531 302.824219 L 123.894531 316.054688 L 141.464844 316.054688 L 141.464844 326.632812 L 98.046875 326.632812 Z M 98.046875 298.367188 " fill-opacity="1" fill-rule="nonzero"/><path fill="#b80000" d="M 141.464844 269.910156 L 128.175781 278.769531 L 141.464844 286.578125 L 141.464844 298.554688 L 119.375 284.65625 L 98.046875 298.875 L 98.046875 286.578125 L 111.160156 277.835938 L 98.046875 270.171875 L 98.046875 258.167969 L 119.929688 271.980469 L 141.464844 257.613281 Z M 141.464844 269.910156 " fill-opacity="1" fill-rule="nonzero"/><path fill="#b80000" d="M 139.074219 223.675781 C 139.074219 226.414062 138.59375 228.820312 137.617188 230.875 C 136.648438 232.933594 135.335938 234.539062 133.683594 235.679688 C 132.035156 236.832031 130.207031 237.480469 128.203125 237.632812 L 128.203125 234.808594 C 130.417969 234.480469 132.394531 233.4375 134.121094 231.6875 C 135.851562 229.941406 136.714844 227.273438 136.714844 223.675781 C 136.714844 221.597656 136.335938 219.785156 135.578125 218.226562 C 134.804688 216.675781 133.753906 215.480469 132.429688 214.640625 C 131.089844 213.789062 129.617188 213.359375 128 213.359375 C 125.960938 213.359375 124.34375 213.855469 123.132812 214.847656 C 121.910156 215.835938 121 217.074219 120.394531 218.546875 C 119.796875 220.003906 119.15625 221.976562 118.472656 224.460938 C 117.757812 227.203125 117.035156 229.410156 116.316406 231.078125 C 115.578125 232.753906 114.464844 234.160156 112.964844 235.300781 C 111.449219 236.453125 109.378906 237.023438 106.757812 237.023438 C 104.738281 237.023438 102.894531 236.496094 101.21875 235.449219 C 99.550781 234.382812 98.242188 232.871094 97.285156 230.902344 C 96.316406 228.921875 95.828125 226.640625 95.828125 224.054688 C 95.828125 220.308594 96.761719 217.285156 98.625 214.992188 C 100.476562 212.703125 102.734375 211.335938 105.417969 210.882812 L 105.417969 213.796875 C 104.332031 214.03125 103.222656 214.570312 102.09375 215.398438 C 100.972656 216.214844 100.039062 217.382812 99.296875 218.898438 C 98.5625 220.398438 98.191406 222.1875 98.191406 224.289062 C 98.191406 227.105469 98.96875 229.488281 100.519531 231.425781 C 102.058594 233.351562 104.121094 234.3125 106.699219 234.3125 C 108.761719 234.3125 110.398438 233.816406 111.625 232.824219 C 112.847656 231.820312 113.773438 230.574219 114.390625 229.09375 C 115.019531 227.625 115.644531 225.640625 116.285156 223.152344 C 117.066406 220.375 117.800781 218.167969 118.5 216.535156 C 119.199219 214.902344 120.308594 213.519531 121.824219 212.367188 C 123.335938 211.226562 125.378906 210.648438 127.941406 210.648438 C 129.851562 210.648438 131.644531 211.160156 133.332031 212.164062 C 135.023438 213.179688 136.40625 214.664062 137.46875 216.625 C 138.542969 218.570312 139.074219 220.921875 139.074219 223.675781 Z M 139.074219 223.675781 " fill-opacity="1" fill-rule="nonzero"/><path fill="#b80000" d="M 96.238281 182.691406 L 98.539062 182.691406 L 98.539062 194.78125 L 138.636719 194.78125 L 138.636719 197.492188 L 98.539062 197.492188 L 98.539062 209.558594 L 96.238281 209.558594 Z M 96.238281 182.691406 " fill-opacity="1" fill-rule="nonzero"/><path fill="#b80000" d="M 96.238281 177.378906 L 122.753906 177.378906 C 127.554688 177.378906 131.074219 176.292969 133.304688 174.113281 C 135.539062 171.945312 136.65625 168.984375 136.65625 165.257812 C 136.65625 161.546875 135.546875 158.625 133.332031 156.484375 C 131.117188 154.351562 127.59375 153.28125 122.753906 153.28125 L 96.238281 153.28125 L 96.238281 150.570312 L 122.695312 150.570312 C 128.21875 150.570312 132.328125 151.902344 135.023438 154.5625 C 137.726562 157.226562 139.074219 160.789062 139.074219 165.257812 C 139.074219 169.730469 137.71875 173.320312 134.992188 176.039062 C 132.277344 178.742188 128.175781 180.089844 122.695312 180.089844 L 96.238281 180.089844 Z M 96.238281 177.378906 " fill-opacity="1" fill-rule="nonzero"/><path fill="#b80000" d="M 96.238281 132.648438 C 96.238281 125.476562 98.117188 119.957031 101.863281 116.066406 C 105.613281 112.183594 110.828125 110.238281 117.507812 110.238281 C 124.199219 110.238281 129.390625 112.183594 133.101562 116.066406 C 136.792969 119.957031 138.636719 125.476562 138.636719 132.648438 L 138.636719 144.535156 L 96.238281 144.535156 Z M 136.335938 132.648438 C 136.335938 126.234375 134.671875 121.371094 131.351562 118.046875 C 128.027344 114.710938 123.417969 113.035156 117.507812 113.035156 C 111.550781 113.035156 106.894531 114.710938 103.550781 118.046875 C 100.214844 121.371094 98.539062 126.234375 98.539062 132.648438 L 98.539062 141.824219 L 136.335938 141.824219 Z M 136.335938 132.648438 " fill-opacity="1" fill-rule="nonzero"/><path fill="#b80000" d="M 96.238281 102.945312 L 138.636719 102.945312 L 138.636719 105.652344 L 96.238281 105.652344 Z M 96.238281 102.945312 " fill-opacity="1" fill-rule="nonzero"/><g clip-path="url(#7d11305027)"><path fill="#b80000" d="M 139.132812 77.714844 C 139.132812 81.621094 138.222656 85.148438 136.390625 88.292969 C 134.550781 91.425781 131.976562 93.875 128.671875 95.636719 C 125.371094 97.40625 121.648438 98.289062 117.507812 98.289062 C 113.3125 98.289062 109.582031 97.40625 106.320312 95.636719 C 103.042969 93.875 100.484375 91.425781 98.65625 88.292969 C 96.8125 85.148438 95.886719 81.621094 95.886719 77.714844 C 95.886719 73.8125 96.8125 70.285156 98.65625 67.136719 C 100.484375 63.992188 103.042969 61.535156 106.320312 59.765625 C 109.582031 58.003906 113.3125 57.113281 117.507812 57.113281 C 121.648438 57.113281 125.371094 58.003906 128.671875 59.765625 C 131.976562 61.535156 134.550781 63.992188 136.390625 67.136719 C 138.222656 70.285156 139.132812 73.8125 139.132812 77.714844 Z M 136.714844 77.714844 C 136.714844 74.378906 135.925781 71.355469 134.351562 68.652344 C 132.777344 65.957031 130.550781 63.832031 127.652344 62.273438 C 124.757812 60.71875 121.378906 59.941406 117.507812 59.941406 C 113.605469 59.941406 110.210938 60.71875 107.3125 62.273438 C 104.398438 63.832031 102.167969 65.957031 100.609375 68.652344 C 99.035156 71.355469 98.246094 74.378906 98.246094 77.714844 C 98.246094 81.058594 99.035156 84.082031 100.609375 86.777344 C 102.167969 89.460938 104.398438 91.585938 107.3125 93.160156 C 110.210938 94.734375 113.605469 95.519531 117.507812 95.519531 C 121.378906 95.519531 124.757812 94.734375 127.652344 93.160156 C 130.550781 91.585938 132.777344 89.460938 134.351562 86.777344 C 135.925781 84.082031 136.714844 81.058594 136.714844 77.714844 Z M 136.714844 77.714844 " fill-opacity="1" fill-rule="nonzero"/></g></svg>